# xmcd
#
# Track frame offsets: 
#        150
#        26352
#        46372
#        57922
#        69512
#        87062
#        109650
#        138997
#        165385
#        189835
#        237295
#
# Disc length: 3233 seconds
#
# Revision: 5
# Processed by: cddbd v1.5.2PL0 Copyright (c) Steve Scherf et al.
# Submitted via: ExactAudioCopy v0.99pb5
#
DISCID=820c9f0b
DTITLE=Accept - Staying A Life - CD 2
DYEAR=1990
DGENRE=Heavy Metal
TTITLE0=Head Over Heels
TTITLE1=Guitar Solo Wolf
TTITLE2=Restless And Wild
TTITLE3=Son Of A Bitch
TTITLE4=London Leatherboys
TTITLE5=Love Child
TTITLE6=Flash Rockin' Man
TTITLE7=Dogs On Leads
TTITLE8=Fast As A Shark
TTITLE9=Balls To The Wall
TTITLE10=Outro (Bound To Fail)
EXTD=YEAR: 1990
EXTT0=
EXTT1=
EXTT2=
EXTT3=
EXTT4=
EXTT5=
EXTT6=
EXTT7=
EXTT8=
EXTT9=
EXTT10=
PLAYORDER=
